<svg id="Capa_1" data-name="Capa 1" xmlns="http://www.w3.org/2000/svg" viewBox="0 0 275 210"><defs><style>.cls-1{fill:#157eab;}.cls-2{fill:none;}.cls-3{fill:#fff;}.cls-4{fill:#177da9;}.cls-5{fill:#9ac21c;}</style></defs><title>desarrollo movil</title><path class="cls-1" d="M137.46,194C69.32,194,.35,177.86.35,147s69-47,137.11-47,137.11,16.14,137.11,47S205.6,194,137.46,194Z"/><rect class="cls-2" x="56.19" y="30.07" width="141.37" height="86.51"/><path class="cls-3" d="M205.28,14.57H48.41a7.85,7.85,0,0,0-7.78,7.78V124.16a7.85,7.85,0,0,0,7.78,7.78H205.15a7.62,7.62,0,0,0,3.22-1.38,7.74,7.74,0,0,0,4.69-6.4V22.35A7.85,7.85,0,0,0,205.28,14.57Z"/><rect class="cls-4" x="56.19" y="30.07" width="141.37" height="86.51"/><rect class="cls-2" x="168.2" y="82.39" width="46.38" height="75.79"/><path class="cls-3" d="M159.89,78.26v84.09a4.21,4.21,0,0,0,4.17,4.17h54.58a4.21,4.21,0,0,0,4.17-4.17v-84a4.09,4.09,0,0,0-.74-1.73,4.15,4.15,0,0,0-3.43-2.52H164.07A4.21,4.21,0,0,0,159.89,78.26Z"/><rect class="cls-4" x="168.2" y="87.15" width="46.38" height="64.98"/><path class="cls-5" d="M180.81,82.11H202a1.34,1.34,0,0,0,0-2.69H180.81a1.34,1.34,0,0,0,0,2.69h0Z"/><path class="cls-5" d="M116.29,125.79h21.17a1.34,1.34,0,0,0,0-2.69H116.29a1.34,1.34,0,0,0,0,2.69h0Z"/><circle class="cls-5" cx="129.67" cy="22.64" r="3.36"/><circle class="cls-5" cx="191.39" cy="158.18" r="3.36"/><rect class="cls-3" x="53.06" y="44.14" width="40.91" height="76.16"/><rect class="cls-3" x="164.17" y="96.78" width="27.22" height="33.88"/><rect class="cls-5" x="56.19" y="41.46" width="141.37" height="5.38"/><rect class="cls-3" x="72.74" y="33.38" width="108.07" height="5.38"/><rect class="cls-5" x="56.19" y="55.9" width="39.2" height="5.38"/><rect class="cls-5" x="56.19" y="70.35" width="39.2" height="5.38"/><rect class="cls-5" x="56.19" y="84.8" width="39.2" height="5.38"/><rect class="cls-5" x="56.19" y="99.25" width="39.2" height="5.38"/><rect class="cls-5" x="91.28" y="44.14" width="5.38" height="72.43"/><rect class="cls-5" x="187.12" y="98.07" width="5.38" height="32.59"/><rect class="cls-5" x="168.2" y="94.1" width="46.37" height="5.38"/><rect class="cls-5" x="168.2" y="102.94" width="23.15" height="5.38"/><rect class="cls-5" x="168.2" y="111.68" width="23.15" height="5.38"/><rect class="cls-5" x="168.2" y="120.46" width="23.15" height="5.38"/><rect class="cls-5" x="168.2" y="129.25" width="24.41" height="5.38"/></svg>