<svg id="Capa_1" data-name="Capa 1" xmlns="http://www.w3.org/2000/svg" viewBox="0 0 63.83 63.83"><defs><style>.cls-1{fill:#15a9df;}.cls-2{fill:#117daa;}.cls-3{fill:#fff;}.cls-4{fill:#9ac31c;}</style></defs><title>Mision</title><polygon class="cls-1" points="63.83 31.92 52.94 21.02 54.25 17.2 46.77 9.88 42.9 10.98 31.92 0 21.02 10.89 17.2 9.58 9.88 17.06 10.98 20.93 0 31.92 10.85 42.76 9.48 46.73 16.96 54.05 20.99 52.91 31.92 63.83 42.81 52.94 46.63 54.25 53.95 46.77 52.85 42.9 63.83 31.92"/><path class="cls-2" d="M31.7,49.2c-8.39,0-16.88-2.49-16.88-7.26s8.49-7.26,16.88-7.26,16.88,2.49,16.88,7.26S40.09,49.2,31.7,49.2Z" transform="translate(1)"/><path class="cls-2" d="M31.8,16.08a1.05,1.05,0,0,0,0,.47,1.63,1.63,0,0,0,.44.45,2.14,2.14,0,0,0,1.75.23l0.32-3.48s0.05,0-.08-0.22S33,14.61,32.58,15a5.15,5.15,0,0,0-.78,1.06h0Z" transform="translate(1)"/><path class="cls-2" d="M40.49,14.2a16.81,16.81,0,0,1-3.6,2.2c-1.45.45-3.45,1.74-4.61,1a3.13,3.13,0,0,1-.81-0.7c-0.11.85,0,1.72,0,2.62V27.6l-0.1.6a2.53,2.53,0,0,0,.45.79c2.11,2.05,4.36,1,6.18-.07a8,8,0,0,0,2.89-2.83c0-4-.14-11.81-0.15-11.91s-0.18,0-.18,0h0Z" transform="translate(1)"/><path class="cls-2" d="M23.58,29s-0.13.48,0.21,0.37a17.64,17.64,0,0,1,7.26-2.72,17.33,17.33,0,0,0,.14-2.47,3.31,3.31,0,0,1-1,.15c0.08-.79.14-1.57,0.22-2.45,0.14,0,.46-0.11.6-0.11,0.07-.75.13-2,0.12-2.79a0.76,0.76,0,0,1-.32,0c0.06-.93.26-2,0.28-2.77,0.61-1.37,2.63-2.69,2.56-3a0.66,0.66,0,0,0-.59-0.38c-2.6-.55-5.66.75-7.59,2.39l-0.93,7-1,6.7h0Z" transform="translate(1)"/><path id="svg_1" data-name="svg 1" class="cls-3" d="M40.31,17.5l-1.85,1.22a9.64,9.64,0,0,0,0-2.42l1.87-1.22c0,0.43,0,2,0,2.42h0Zm0.09,5a5.82,5.82,0,0,1-1.85,1.12c0-.78-0.1-1.41-0.08-2.18a7,7,0,0,0,1.91-1.16c0,0.8,0,1.4,0,2.22h0Zm0.1,3.44a8.32,8.32,0,0,1-2.23,2.2l0-1.86a9.37,9.37,0,0,0,2.16-1.45,2.45,2.45,0,0,1,0,1.11h0Zm-4.32.8a8.9,8.9,0,0,0,0-2.13,7.77,7.77,0,0,0,2-.78,19,19,0,0,1,0,2.22l-2,.68h0Zm-0.26,2.44a2.74,2.74,0,0,1-2.66.11c0.07-.56,0-1.15.07-1.71A6.44,6.44,0,0,0,35.92,27a13.24,13.24,0,0,1,0,2.18h0Zm-4.05-2.61,0.06-2.34,1.29,0.64c0,1,0,1.39,0,2.41a1.69,1.69,0,0,1-1.3-.72h0ZM32,21.11l0-2.06a2.55,2.55,0,0,0,1.38.63,10.44,10.44,0,0,1,0,2.12C31.88,21.48,32,21.11,32,21.11Zm3.89,1c0,1,.09,1.3,0,2.25a3.54,3.54,0,0,1-2.46.16l0.06-2.28A3.09,3.09,0,0,0,35.85,22.06Zm-2.33-4,1.83-.57,0.28,2-2,.07-0.08-1.48h0Zm4.64,1L38.1,21.16,36,21.68S36,20.26,36,19.79a13.1,13.1,0,0,0,2.21-.72h0Zm-11,3.26c-0.14.79-.08,1.71-0.18,2.52a10.84,10.84,0,0,0-2.47.89l0.37-2.57a5.9,5.9,0,0,1,2.28-.83h0Zm-1.62-4.41,2.07-.76c0,0.78-.16,1.56-0.21,2.22l-2.12.77,0.25-2.23h0Zm2.5-3.41a6.27,6.27,0,0,1,2.75-1,18.82,18.82,0,0,0-.23,2.69,7.43,7.43,0,0,0-2.65.5l0.14-2.19h0Zm1.92,7-2.49.42c0.08-.81.1-1.66,0.2-2.4l2.67-.46A14.93,14.93,0,0,0,30,21.51h0Zm-0.34,4.77L27,27.05s0.28-1.52.35-2.09l2.42-.38c0,0.36-.15,1.71-0.15,1.71h0Z" transform="translate(1)"/><path class="cls-4" d="M20.83,41.32a1,1,0,0,0,.32.29,0.68,0.68,0,0,0,.46,0S25,17.37,25.33,15.41a0.46,0.46,0,0,0-.66-0.31,2.68,2.68,0,0,0,0,.43l-3.79,25.8h0Z" transform="translate(1)"/><polygon class="cls-3" points="32.16 19.03 32.19 16.21 32.11 16.2 31.78 18.95 32.16 19.03"/><path class="cls-3" d="M31,21.73l0.16,2.41a1.83,1.83,0,0,1-1,.15l0.22-2.45Z" transform="translate(1)"/><rect class="cls-1" x="32.11" y="16.2" width="0.39" height="13.55"/></svg>