<svg id="Capa_1" data-name="Capa 1" xmlns="http://www.w3.org/2000/svg" xmlns:xlink="http://www.w3.org/1999/xlink" viewBox="0 0 81.62 115.32"><defs><style>.cls-1{fill:none;}.cls-2{fill:#15a9df;}.cls-3,.cls-5{fill:#117daa;}.cls-4{fill:#fff;}.cls-5{stroke:#9ac31c;stroke-miterlimit:10;}.cls-6{clip-path:url(#clip-path);}.cls-7{fill:#9ac31c;}</style><clipPath id="clip-path" transform="translate(8.2)"><circle class="cls-1" cx="7.92" cy="72.08" r="7.81"/></clipPath></defs><title>Quienes_somos</title><polygon class="cls-2" points="72.03 31.92 61.14 21.02 62.45 17.2 54.97 9.88 51.1 10.98 40.12 0 29.22 10.89 25.4 9.58 18.08 17.06 19.18 20.93 8.2 31.92 19.05 42.76 17.68 46.73 25.16 54.05 29.19 52.91 40.12 63.83 51.01 52.94 54.83 54.25 62.15 46.77 61.05 42.9 72.03 31.92"/><path class="cls-3" d="M31.57,50.09c-9.82,0-19.76-1.89-19.76-5.49s9.94-5.49,19.76-5.49S51.33,41,51.33,44.6,41.39,50.09,31.57,50.09Z" transform="translate(8.2)"/><g id="g3017"><path id="path3826" class="cls-4" d="M30.62,37.17c2.18-.8,9.63-1.66,11.61-0.93,0.35-.77.7-0.41,1.33-0.84A6.57,6.57,0,0,1,44.35,33c0.12-1.05-.22-2.53,1-3s0.84,1.87.91,2.8a8.77,8.77,0,0,1-1.06,3.86c-1.49,2.18-2.92,2.55-3.94,3.51l1.1-.2" transform="translate(8.2)"/><path id="path3824" class="cls-4" d="M40.65,38.54c2.19-.59,2.84-2.32,4.33-2.44a10.25,10.25,0,0,1,2.09-3.31c0.81-2.2,1.83-2.86,2.22-2.27,0.52,0.79.11,1.88-.76,3.84-0.71,1.39-1.22,3-2.52,3.79l-1.81,1.38" transform="translate(8.2)"/><path id="path3822" class="cls-4" d="M50.25,36.41c1.18-1.86,2.34-2.6,3-3.8,0.48-1.08-1.34-1.73-3.25.23a8.77,8.77,0,0,0-1.5,1.85,30.77,30.77,0,0,0-5.38,3.88" transform="translate(8.2)"/></g><rect class="cls-5" x="28.87" y="21" width="27.67" height="18.56"/><rect class="cls-4" x="21.46" y="39.04" width="1.47" height="1.44"/><rect class="cls-4" x="20.34" y="37.92" width="1.47" height="1.47"/><rect class="cls-4" x="21.61" y="36.65" width="1.47" height="1.47"/><rect class="cls-4" x="20.34" y="35.4" width="1.47" height="1.47"/><rect class="cls-4" x="21.61" y="34.05" width="1.47" height="1.47"/><rect class="cls-4" x="20.14" y="32.78" width="1.47" height="1.47"/><rect class="cls-4" x="19.14" y="34.05" width="1.47" height="1.47"/><rect class="cls-4" x="19.14" y="36.75" width="1.47" height="1.47"/><rect class="cls-4" x="19.14" y="31.42" width="1.47" height="1.47"/><rect class="cls-4" x="17.68" y="32.67" width="1.47" height="1.47"/><rect class="cls-4" x="17.68" y="35.4" width="1.47" height="1.47"/><rect class="cls-4" x="21.46" y="31.42" width="1.47" height="1.47"/><rect class="cls-4" x="20.14" y="30.85" width="1.47" height="0.66"/><rect class="cls-5" x="35.02" y="19.31" width="5.5" height="5.5"/><rect class="cls-5" x="48.43" y="16.15" width="3.17" height="3.17"/><rect class="cls-5" x="52.68" y="20.15" width="5.5" height="5.5"/><rect class="cls-5" x="27.87" y="19.31" width="4.27" height="4.27"/><rect class="cls-5" x="42.38" y="15.04" width="4.27" height="4.27"/><rect class="cls-5" x="43.12" y="23.26" width="7.07" height="7.07"/><path class="cls-4" d="M53.13,34.33c-1.73.09-2.74,1.1-3.84,1.77a18.54,18.54,0,0,1-4.52,2.21,12,12,0,0,0-2.59.12,3.54,3.54,0,0,1-2.28-.84c2.64-.38,3.83-2.65,3.46-3.77-0.19-.59-1.09-2.17-4.88-1.58a15.37,15.37,0,0,1-5.31.3C31.08,32.13,29,31.05,25,30.78c-1.48,0-3.35.28-5.1,0.39-1.47.1-2.5-.37-5.39-0.27,0,0.14-.06,9.48-0.07,9.58a31.49,31.49,0,0,1,4.89.47C23,41.18,25,43.82,27.75,44.57a21.59,21.59,0,0,0,7.77.82c2,0.07,3.56-1.12,5.06-1.73,2.64-.76,5.06-0.05,6.64-1.42s3.15-3.68,7.34-6C55.12,35.29,53.92,34.29,53.13,34.33Z" transform="translate(8.2)"/><rect class="cls-5" x="36.43" y="14.15" width="3.17" height="3.17"/><rect class="cls-5" x="31.43" y="14.15" width="3.17" height="3.17"/><rect class="cls-5" x="30.43" y="25.15" width="3.17" height="3.17"/><rect class="cls-5" x="37.43" y="27.15" width="3.17" height="3.17"/><polygon class="cls-2" points="32.59 72.6 27.03 67.03 27.7 65.08 23.88 61.35 21.9 61.91 16.3 56.3 10.73 61.86 8.78 61.19 5.04 65.01 5.61 66.99 0 72.6 5.54 78.13 4.84 80.16 8.66 83.9 10.72 83.31 16.3 88.89 21.86 83.33 23.8 84 27.54 80.18 26.98 78.2 32.59 72.6"/><path class="cls-3" d="M8.09,82.19c-4.3,0-8.65-1.27-8.65-3.71s4.35-3.71,8.65-3.71,8.65,1.27,8.65,3.71S12.39,82.19,8.09,82.19Z" transform="translate(8.2)"/><g id="layer2"><g class="cls-6"><g id="g6175"><path id="path4023" class="cls-3" d="M16.1,63.09H7.91v3.59h0a0.4,0.4,0,0,1-.16.29,0.31,0.31,0,0,1-.32,0,2.59,2.59,0,0,0-.87-0.29,1,1,0,0,0-.91,1s0,0,0,.05a1,1,0,0,0,.91.94,2.19,2.19,0,0,0,.87-0.29,0.31,0.31,0,0,1,.32,0,0.4,0.4,0,0,1,.16.29h0V72h3.32a0.36,0.36,0,0,1,.27.17,0.38,0.38,0,0,1,0,.35,3.15,3.15,0,0,0-.27.95,1,1,0,0,0,.91,1h0a1,1,0,0,0,.86-1,2.66,2.66,0,0,0-.27-0.95,0.38,0.38,0,0,1,0-.35A0.36,0.36,0,0,1,13,72h3V63.09Z" transform="translate(8.2)"/></g><g id="g6169"><path id="path4310" class="cls-4" d="M16.11,80.58l0-8.55h-3a0.34,0.34,0,0,0-.27.5,2.5,2.5,0,0,1,.27.91,0.94,0.94,0,0,1-.87.95h0a0.93,0.93,0,0,1-.91-1,3,3,0,0,1,.27-0.91,0.34,0.34,0,0,0-.27-0.5H8v3.46h0a0.38,0.38,0,0,1-.16.28,0.32,0.32,0,0,1-.32,0,2.66,2.66,0,0,0-.87-0.29,0.93,0.93,0,0,0-.91.95s0,0,0,0a0.93,0.93,0,0,0,.91.91,2.25,2.25,0,0,0,.88-0.28,0.32,0.32,0,0,1,.32,0,0.38,0.38,0,0,1,.16.28h0v3.18h8.19Z" transform="translate(8.2)"/></g><g id="g6180"><path id="path4316" class="cls-4" d="M8.06,63.07l-8.32.11L-0.16,72l3.37,0h0a0.36,0.36,0,0,1,.28.17,0.38,0.38,0,0,1,0,.35,3.11,3.11,0,0,0-.27,1,1,1,0,0,0,.94,1h0a1,1,0,0,0,.87-1,2.63,2.63,0,0,0-.29-0.94,0.38,0.38,0,0,1,0-.35A0.37,0.37,0,0,1,5.06,72h0l3.1,0,0-3.3h0A0.4,0.4,0,0,0,8,68.34a0.32,0.32,0,0,0-.33,0,2.26,2.26,0,0,1-.89.31,1,1,0,0,1-.94-0.92s0,0,0-.05a1,1,0,0,1,.91-1,2.66,2.66,0,0,1,.89.28,0.32,0.32,0,0,0,.33,0,0.4,0.4,0,0,0,.16-0.3h0l0-3.59h0Z" transform="translate(8.2)"/></g><path id="path4312" class="cls-7" d="M8.22,72H5.13a0.37,0.37,0,0,0-.28.17,0.35,0.35,0,0,0,0,.34,2.47,2.47,0,0,1,.28.91,0.94,0.94,0,0,1-.88,1h0a0.94,0.94,0,0,1-.93-0.95,2.92,2.92,0,0,1,.27-0.91,0.35,0.35,0,0,0,0-.34A0.37,0.37,0,0,0,3.28,72H-0.1v3.46h0a0.38,0.38,0,0,1-.16.28,0.33,0.33,0,0,1-.33,0,2.73,2.73,0,0,0-.89-0.28,0.94,0.94,0,0,0-.92,1s0,0,0,0a0.94,0.94,0,0,0,.93.9,2.31,2.31,0,0,0,.89-0.28,0.33,0.33,0,0,1,.33,0,0.67,0.67,0,0,1,.16.28v3.18l8.32,0V77.38a0.67,0.67,0,0,0-.16-0.28c-0.1-.06-0.9.3-1.22,0.29a0.94,0.94,0,0,1-.93-0.9s0,0,0,0a0.94,0.94,0,0,1,.92-1,2.73,2.73,0,0,1,.89.28,0.33,0.33,0,0,0,.33,0,0.67,0.67,0,0,0,.16-0.28V72h0Z" transform="translate(8.2)"/></g></g><polygon class="cls-4" points="15.37 79.32 10.64 74.66 12.63 72.56 14.81 74.71 20.48 65.36 22.91 66.91 15.37 79.32"/><path class="cls-2" d="M7.22,79.73L2.09,74.67l2.33-2.48L6.56,74.3,12.2,65l2.86,1.82ZM2.8,74.66l4.32,4.26L14.36,67l-2-1.27-5.71,9.4L4.43,72.92Z" transform="translate(8.2)"/><polygon class="cls-2" points="81.62 88.95 72.62 79.94 73.7 76.78 67.52 70.73 64.32 71.64 55.25 62.57 46.24 71.57 43.08 70.49 37.03 76.67 37.94 79.87 28.87 88.95 37.83 97.91 36.7 101.19 42.88 107.24 46.21 106.29 55.25 115.32 64.25 106.32 67.4 107.4 73.45 101.22 72.54 98.02 81.62 88.95"/><path class="cls-3" d="M46.83,104.62c-7,0-14-1.41-14-4.1s7-4.1,14-4.1,14,1.41,14,4.1S53.79,104.62,46.83,104.62Z" transform="translate(8.2)"/><path class="cls-4" d="M54.22,80.76a9.12,9.12,0,0,0-.86-1l0,0A9.09,9.09,0,0,1,40.93,93l-4.16,4.16a15,15,0,0,0,21.71-20.5l0,4.08Z" transform="translate(8.2)"/><path class="cls-3" d="M57.48,75.55l-0.05-.06A15,15,0,0,0,35.29,95.63l0-4.1,4.24,0a9.09,9.09,0,0,1,13.3-12.25L57,75.11C57.16,75.26,57.32,75.4,57.48,75.55Z" transform="translate(8.2)"/><path class="cls-7" d="M52.84,79.27h0c0.16,0.14.33,0.29,0.49,0.44l-0.05-.06C53.13,79.52,53,79.4,52.84,79.27Z" transform="translate(8.2)"/><path class="cls-7" d="M58.47,76.66h0c-0.3-.36-0.61-0.71-1-1.05l0,0C57.83,75.91,58.16,76.28,58.47,76.66Z" transform="translate(8.2)"/><path class="cls-7" d="M57,75.11l-4.15,4.15c0.14,0.13.29,0.25,0.43,0.39l0.05,0.06,0,0a9.12,9.12,0,0,1,.86,1l4.24,0,0-4.08c-0.31-.38-0.64-0.75-1-1.1C57.32,75.4,57.16,75.26,57,75.11Z" transform="translate(8.2)"/><path class="cls-7" d="M40.4,92.52a9.12,9.12,0,0,1-.86-1l-4.24,0,0,4.1c0.3,0.36.61,0.71,1,1.05,0.17,0.17.35,0.32,0.53,0.48L40.93,93C40.75,92.85,40.57,92.69,40.4,92.52Z" transform="translate(8.2)"/><polygon class="cls-4" points="44.37 92.4 51.48 92.37 44.34 99.51 44.37 92.4"/><polygon class="cls-3" points="65.78 79.89 58.67 79.92 65.81 72.77 65.78 79.89"/></svg>