<svg id="Capa_1" data-name="Capa 1" xmlns="http://www.w3.org/2000/svg" viewBox="0 0 63.63 35.54"><defs><style>.cls-1{fill:#157eab;}.cls-2{fill:none;}.cls-3{fill:#fff;}.cls-4{fill:#177da9;}.cls-5{fill:#9ac21c;}</style></defs><title>software</title><path class="cls-1" d="M31.82,44C16,44,0,41,0,35.31s16-8.73,31.82-8.73,31.82,3,31.82,8.73S47.62,44,31.82,44Z" transform="translate(0 -8.49)"/><rect class="cls-2" x="18.14" y="2.99" width="27.2" height="16.63"/><path class="cls-3" d="M46.82,8.49H16.63A1.54,1.54,0,0,0,15.12,10V29.59a1.54,1.54,0,0,0,1.51,1.51H46.79a1.47,1.47,0,0,0,.62-.27,1.51,1.51,0,0,0,.92-1.24V10A1.54,1.54,0,0,0,46.82,8.49Z" transform="translate(0 -8.49)"/><path class="cls-3" d="M10.57,37.05H52.83a1.86,1.86,0,0,0,0-3.73H10.57A1.86,1.86,0,0,0,8.7,35.19a1.88,1.88,0,0,0,1.86,1.86Z" transform="translate(0 -8.49)"/><rect class="cls-4" x="18.14" y="2.99" width="27.2" height="16.63"/><path class="cls-5" d="M21.49,20.48V19l7.28-3.73v1.63L23,19.74l5.77,2.93V24.3Z" transform="translate(0 -8.49)"/><path class="cls-5" d="M29.62,26.58l3.17-13.85h1.1l-3.2,13.85Z" transform="translate(0 -8.49)"/><path class="cls-5" d="M42,20.48l-7.28,3.73v-1.6l5.77-2.93-5.77-2.9V15.15L42,18.88v1.6Z" transform="translate(0 -8.49)"/></svg>