<svg id="Capa_1" data-name="Capa 1" xmlns="http://www.w3.org/2000/svg" viewBox="0 0 63.83 63.83"><defs><style>.cls-1{fill:#15a9df;}.cls-2{fill:#117daa;}.cls-3{fill:#9ac31c;}.cls-4{fill:#fff;}</style></defs><title>Valores</title><polygon class="cls-1" points="63.83 31.92 52.94 21.02 54.25 17.2 46.77 9.88 42.9 10.98 31.92 0 21.02 10.89 17.2 9.58 9.88 17.06 10.98 20.93 0 31.92 10.85 42.76 9.48 46.73 16.96 54.05 20.99 52.91 31.92 63.83 42.81 52.94 46.63 54.25 53.95 46.77 52.85 42.9 63.83 31.92"/><path class="cls-2" d="M166.14,49.2c-8.39,0-16.88-2.49-16.88-7.26s8.49-7.26,16.88-7.26S183,37.18,183,41.94,174.53,49.2,166.14,49.2Z" transform="translate(-134.86)"/><path id="svg_1" data-name="svg 1" class="cls-2" d="M159.32,11.88a2.8,2.8,0,0,0-2,.8c-0.64,1.37.92,0.73,1.1,1.68a0.88,0.88,0,0,1-.92,1h-4.73v4.69a0.88,0.88,0,0,0,1,.92c0.77-.15.5-1.2,1.1-1.25a1.22,1.22,0,0,1,.58.15,2.8,2.8,0,0,1,.8,2,3.13,3.13,0,0,1-.06.75v0a2.59,2.59,0,0,1-.77,1.65c-1.37.64-.73-0.92-1.68-1.1a0.79,0.79,0,0,0-1,.72v5l4.75,0,4.07,0h4.71V24a0.79,0.79,0,0,1,1-.71c0.95,0.18.31,1.74,1.68,1.1a2.6,2.6,0,0,0,.77-1.65v0a3.13,3.13,0,0,0,.06-0.75,2.8,2.8,0,0,0-.8-2c-1.37-.64-0.73.92-1.68,1.1a0.88,0.88,0,0,1-1-.92V15.36h-4.95a0.78,0.78,0,0,1-.69-1c0.18-.95,1.74-0.31,1.1-1.68a2.59,2.59,0,0,0-1.65-.77h0a3.13,3.13,0,0,0-.75-0.06h0Z" transform="translate(-134.86)"/><path id="svg_1-2" data-name="svg 1" class="cls-3" d="M172.56,24.82a2.8,2.8,0,0,0-2,.8c-0.64,1.37.92,0.73,1.1,1.68a0.88,0.88,0,0,1-.92,1H166V33s0.06,3.56,0,3.87v5l4.75,0a0.88,0.88,0,0,0,.92-1c-0.18-.95-1.74-0.31-1.1-1.68a2.8,2.8,0,0,1,2-.8,3.13,3.13,0,0,1,.75.06h0a2.6,2.6,0,0,1,1.65.77c0.64,1.37-.92.73-1.1,1.68a0.88,0.88,0,0,0,.92,1h4.71V36.9a0.79,0.79,0,0,1,1-.71c0.95,0.18.31,1.74,1.68,1.1a2.6,2.6,0,0,0,.77-1.65v0a3.13,3.13,0,0,0,.06-0.75,2.8,2.8,0,0,0-.8-2c-1.37-.64-0.73.92-1.68,1.1a0.88,0.88,0,0,1-1-.92V28.3h-4.95a0.78,0.78,0,0,1-.69-1c0.18-.95,1.74-0.31,1.1-1.68a2.59,2.59,0,0,0-1.65-.77h0a3.13,3.13,0,0,0-.75-0.06h0Z" transform="translate(-134.86)"/><path id="svg_1-3" data-name="svg 1" class="cls-4" d="M159.32,24.77a2.8,2.8,0,0,0-2,.8c-0.64,1.37.92,0.73,1.1,1.68a0.88,0.88,0,0,1-.92,1h-4.73v4.69a0.88,0.88,0,0,0,1,.92c0.77-.15.5-1.2,1.1-1.25a1.22,1.22,0,0,1,.58.15,2.8,2.8,0,0,1,.8,2,3.13,3.13,0,0,1-.06.75v0a2.59,2.59,0,0,1-.77,1.65c-1.37.64-.73-0.92-1.68-1.1a0.79,0.79,0,0,0-1,.72v5l4.75,0a0.88,0.88,0,0,0,.92-1c-0.18-.95-1.74-0.31-1.1-1.68a2.8,2.8,0,0,1,2-.8,3.13,3.13,0,0,1,.75.06h0a2.6,2.6,0,0,1,1.65.77c0.64,1.37-.92.73-1.1,1.68a0.88,0.88,0,0,0,.92,1h4.71V36.85a0.79,0.79,0,0,1,1-.71c0.95,0.18.31,1.74,1.68,1.1a2.6,2.6,0,0,0,.77-1.65v0a3.13,3.13,0,0,0,.06-0.75,2.8,2.8,0,0,0-.8-2c-1.37-.64-0.73.92-1.68,1.1a0.88,0.88,0,0,1-1-.92V28.24h-4.95a0.78,0.78,0,0,1-.69-1c0.18-.95,1.74-0.31,1.1-1.68a2.59,2.59,0,0,0-1.65-.77h0a3.13,3.13,0,0,0-.75-0.06h0Z" transform="translate(-134.86)"/></svg>