<svg id="Capa_1" data-name="Capa 1" xmlns="http://www.w3.org/2000/svg" viewBox="0 0 63.83 63.83"><defs><style>.cls-1{fill:#15a9df;}.cls-2{fill:#117daa;}.cls-3{fill:#9ac31c;}.cls-4{fill:#fff;}</style></defs><title>Vision</title><polygon class="cls-1" points="63.83 31.92 52.94 21.02 54.25 17.2 46.77 9.88 42.9 10.98 31.92 0 21.02 10.89 17.2 9.58 9.88 17.06 10.98 20.93 0 31.92 10.85 42.76 9.48 46.73 16.96 54.05 20.99 52.91 31.92 63.83 42.81 52.94 46.63 54.25 53.95 46.77 52.85 42.9 63.83 31.92"/><path class="cls-2" d="M97.57,49.2c-8.39,0-16.88-2.49-16.88-7.26s8.49-7.26,16.88-7.26,16.88,2.49,16.88,7.26S106,49.2,97.57,49.2Z" transform="translate(-65.67)"/><polygon class="cls-2" points="32.98 30.43 30.11 27.56 27.24 33.3 32.98 30.43"/><path class="cls-1" d="M91.14,35.07l9-4.52,4.52-9-9,4.52Zm7.5-4.64L92.9,33.3l2.87-5.74Z" transform="translate(-65.67)"/><path class="cls-3" d="M97.58,12.72a15.05,15.05,0,1,0,15.05,15.05A15.05,15.05,0,0,0,97.58,12.72Zm3.86,26.15c-5.74,2.3-12.82-1.28-14.88-7C83.6,25,89.34,16.31,96.75,16.07h0.34c5.57-.44,10.78,3.8,11.95,9.17C110.54,30.87,106.84,37,101.44,38.87Z" transform="translate(-65.67)"/><path class="cls-4" d="M109,25.23c-1.16-5.37-6.38-9.61-11.95-9.17H96.75c-7.41.25-13.14,8.9-10.2,15.78,2.07,5.75,9.15,9.33,14.88,7C106.84,37,110.54,30.87,109,25.23Zm-8.86,5.32-9,4.52,4.52-9,9-4.52Z" transform="translate(-65.67)"/><path class="cls-2" d="M95.81,20.7V17.36h0.68l1.71,2.47V17.36h0.6V20.7H98.13l-1.72-2.49V20.7h-0.6Z" transform="translate(-65.67)"/></svg>