<svg id="Capa_1" data-name="Capa 1" xmlns="http://www.w3.org/2000/svg" xmlns:xlink="http://www.w3.org/1999/xlink" viewBox="0 0 275 210"><defs><style>.cls-1{fill:none;}.cls-2{fill:#157eab;}.cls-3{clip-path:url(#clip-path);}.cls-4{fill:#9ac320;}.cls-5{fill:#fff;}</style><clipPath id="clip-path"><circle class="cls-1" cx="116.8" cy="90.24" r="73.46"/></clipPath></defs><title>webmovil</title><path class="cls-2" d="M137.5,197C69.16,197,0,180.79,0,149.85s69.16-47.12,137.5-47.12S275,118.92,275,149.85,205.84,197,137.5,197Z"/><g class="cls-3"><circle class="cls-2" cx="116.8" cy="90.24" r="73.46"/><path class="cls-4" d="M151.05,246.43C59.22,111.8,150-56.28,150.92-58l4.72,2.6c-0.91,1.65-90.07,166.89-.13,298.74Z"/><path class="cls-4" d="M113.86,206l-4.34-3.2c0.91-1.23,89.55-123.84.18-221.62l4-3.64C206.07,78.57,114.79,204.69,113.86,206Z"/><path class="cls-4" d="M113,181.11c-26-23.24-40-50.27-41.62-80.33C68.36,43.39,111-4.42,112.82-6.43l4,3.62c-0.43.48-43,48.21-40,103.34,1.53,28.56,14.92,54.32,39.82,76.56Z"/><path class="cls-4" d="M135,172.18l-3-4.44c26.32-18,41.23-40,44.3-65.2C182.07,54.46,143,10,142.57,9.51l4-3.59c1.68,1.88,41.13,46.79,35,97.26C178.31,130,162.63,153.24,135,172.18Z"/><path class="cls-4" d="M36.19,68.79L32.33,65c1.77-1.81,44-44.25,94.63-41.56,27,1.42,51.24,15.48,72,41.78l-4.23,3.34c-19.79-25-42.69-38.4-68.08-39.73C78.38,26.27,36.6,68.37,36.19,68.79Z"/><path class="cls-4" d="M-12.09,120.05l-3.69-3.94c1.12-1,113.18-103.78,219.1-21.21L200,99.16C97.69,19.37-11,119-12.09,120.05Z"/><path class="cls-4" d="M-12.09,159.54l-3.69-3.94c1.12-1,113.19-103.78,219.1-21.21L200,138.64C97.69,58.86-11,158.52-12.09,159.54Z"/><path class="cls-4" d="M-12.09,199.9L-15.78,196c1.12-1,113.18-103.78,219.1-21.21L200,179C97.71,99.25-11,198.89-12.09,199.9Z"/></g><path class="cls-4" d="M116.8,166.4A76.16,76.16,0,1,1,193,90.23,76.25,76.25,0,0,1,116.8,166.4Zm0-146.93a70.77,70.77,0,1,0,70.77,70.77A70.85,70.85,0,0,0,116.8,19.47Z"/><polygon class="cls-5" points="191.17 175.69 165.72 67.52 266.45 114.44 210.52 122.58 191.17 175.69"/></svg>